<?xml version="1.0" standalone="no"?>
<!DOCTYPE svg PUBLIC "-//W3C//DTD SVG 20010904//EN"
 "http://www.w3.org/TR/2001/REC-SVG-20010904/DTD/svg10.dtd">
<svg version="1.0" xmlns="http://www.w3.org/2000/svg"
 width="512.000000pt" height="512.000000pt" viewBox="0 0 512.000000 512.000000"
 preserveAspectRatio="xMidYMid meet">
<metadata>
Created by potrace 1.10, written by Peter Selinger 2001-2011
</metadata>
<g transform="translate(0.000000,512.000000) scale(0.100000,-0.100000)"
fill="#2d7436" stroke="none">
<path d="M3129 4909 c-317 -37 -542 -193 -651 -452 -54 -130 -81 -378 -58
-542 23 -163 23 -207 1 -295 -12 -47 -24 -122 -28 -168 l-6 -83 -29 68 c-78
185 -200 283 -392 316 -52 9 -79 8 -152 -7 -49 -9 -102 -23 -119 -31 -16 -7
-41 -17 -55 -21 -48 -14 -213 -108 -291 -165 -76 -57 -79 -60 -79 -99 0 -109
210 -322 385 -390 157 -62 457 -6 627 115 26 19 52 35 57 35 5 0 19 -13 30
-29 20 -27 21 -43 21 -235 0 -238 0 -238 -84 -158 -69 65 -158 97 -271 95
-172 -2 -319 -97 -386 -250 -12 -28 -25 -43 -36 -43 -29 0 -123 -48 -180 -90
-89 -68 -162 -207 -163 -311 0 -29 -5 -38 -27 -48 -65 -29 -112 -74 -234 -222
l-129 -158 -163 -3 c-162 -3 -164 -3 -205 -32 -27 -18 -51 -47 -67 -81 l-26
-52 3 -306 3 -305 31 -39 c17 -21 50 -51 73 -68 l43 -30 188 0 189 0 233 231
c201 199 240 233 282 247 43 15 109 17 530 17 524 0 531 1 715 61 217 70 398
184 562 355 86 90 99 116 99 204 0 72 -13 114 -50 155 -10 11 -20 42 -22 72
-17 187 -216 352 -425 353 -31 0 -53 5 -53 11 0 5 -24 35 -52 66 -38 40 -74
65 -126 89 -40 19 -82 34 -94 34 -20 0 -20 3 -16 368 4 307 7 382 23 460 l19
92 33 0 c47 0 222 27 328 51 144 32 176 41 245 66 290 109 487 243 656 445 72
87 171 247 189 308 4 14 16 44 27 68 28 64 35 138 14 161 -43 48 -423 145
-666 171 -109 11 -164 11 -271 -1z m371 -164 c52 -8 122 -19 155 -25 33 -5 94
-21 135 -35 41 -13 82 -25 90 -25 37 -1 40 -14 21 -71 -55 -153 -182 -329
-328 -450 -182 -152 -417 -259 -690 -313 -185 -36 -243 -42 -243 -25 0 31 93
169 167 249 122 133 218 200 396 276 94 39 113 61 101 109 -9 36 -30 48 -80
47 -53 0 -186 -62 -308 -143 -90 -59 -270 -233 -314 -303 -28 -43 -31 -45 -37
-25 -9 27 3 229 16 284 41 165 129 290 276 388 120 81 375 106 643 62z m-1459
-1167 c60 -28 131 -89 112 -95 -7 -3 -38 3 -69 12 -64 19 -94 14 -124 -17 -49
-53 -9 -114 86 -128 33 -4 83 -18 112 -31 64 -27 60 -35 -41 -86 -89 -44 -195
-72 -273 -73 -132 0 -277 73 -367 185 l-48 60 25 20 c55 44 235 134 311 155
44 12 85 24 90 26 29 11 138 -6 186 -28z m94 -873 c43 -13 64 -28 115 -82 60
-63 64 -65 101 -60 l39 5 0 -111 c0 -62 4 -117 8 -123 13 -20 54 -36 77 -30
49 12 55 29 55 152 0 63 2 114 4 114 2 0 24 -8 48 -19 49 -21 107 -80 138
-141 11 -22 26 -41 33 -42 6 0 57 -2 112 -2 89 -1 106 -4 152 -28 52 -28 86
-65 117 -125 20 -40 20 -43 -1 -43 -28 0 -117 -45 -186 -92 -131 -92 -408
-190 -541 -193 -4 0 -10 20 -12 44 -5 51 -36 126 -67 160 -12 13 -49 37 -82
52 l-60 29 -387 0 c-318 0 -388 2 -388 13 0 8 14 41 31 75 52 105 125 157 261
186 34 8 68 43 68 70 0 32 56 122 94 151 68 52 174 68 271 40z m81 -718 c33
-38 32 -101 -1 -142 l-25 -30 -302 -3 c-294 -2 -304 -3 -320 -23 -22 -26 -23
-68 -4 -95 14 -18 29 -19 328 -19 172 0 325 3 340 7 14 5 39 18 55 31 24 20
46 25 158 35 209 17 432 99 609 223 38 27 80 49 93 49 34 0 83 -51 83 -87 0
-23 -20 -48 -109 -134 -113 -110 -200 -169 -336 -229 -100 -44 -105 -46 -160
-60 -27 -7 -77 -19 -110 -28 -48 -11 -166 -16 -575 -21 -366 -5 -523 -10 -543
-19 -52 -22 -132 -90 -267 -226 -74 -75 -138 -136 -142 -136 -5 0 -8 126 -8
280 l0 280 43 46 c23 26 83 96 132 157 149 183 127 177 633 174 l404 -2 24
-28z m-1376 -702 l0 -315 -112 0 c-117 1 -134 6 -156 47 -15 28 -17 490 -2
530 18 47 35 53 157 53 l113 0 0 -315z"/>
<path d="M3022 2997 c-41 -13 -109 -78 -128 -122 -18 -43 -18 -116 0 -158 29
-70 130 -137 206 -137 36 0 120 43 152 76 37 40 48 74 48 148 0 52 -5 70 -30
110 -50 79 -154 114 -248 83z m118 -157 c11 -11 20 -31 20 -45 0 -30 -36 -65
-67 -65 -52 0 -82 72 -46 112 21 24 68 23 93 -2z"/>
</g>
</svg>
